<svg xmlns="http://www.w3.org/2000/svg" width="16" height="16" fill="currentColor" class="bi bi-resume-fill" viewBox="0 0 16 16">
<g clip-path="url(#clip0_3_4)">
<path d="M13.596 8.69701L7.233 12.389C6.693 12.702 6 12.323 6 11.692V4.30801C6 3.67801 6.692 3.29801 7.233 3.61201L13.596 7.30401C13.7188 7.37414 13.8209 7.4755 13.892 7.59782C13.963 7.72014 14.0004 7.85907 14.0004 8.00051C14.0004 8.14196 13.963 8.28088 13.892 8.4032C13.8209 8.52553 13.7188 8.62689 13.596 8.69701Z"/>
<path d="M13.596 8.69701L7.233 12.389C6.693 12.702 6 12.323 6 11.692V4.30801C6 3.67801 6.692 3.29801 7.233 3.61201L13.596 7.30401C13.7188 7.37414 13.8209 7.4755 13.892 7.59782C13.963 7.72014 14.0004 7.85907 14.0004 8.00051C14.0004 8.14196 13.963 8.28088 13.892 8.4032C13.8209 8.52553 13.7188 8.62689 13.596 8.69701Z"/>
<rect x="1" y="3" width="3" height="10" rx="1.5"/>
</g>
<defs>
<clipPath id="clip0_3_4">
<rect width="16" height="16" fill="white"/>
</clipPath>
</defs>
</svg>
